<svg width="275" height="35" viewBox="0 0 275 35" fill="none" xmlns="http://www.w3.org/2000/svg">
<path d="M0 35V0H35V5H10V15H30V20H10V35H0ZM55 5V0H65V5H55ZM45 35V30H55V15H50V10H65V30H75V35H45ZM95 15H100V20H95V35H85V10H95V15ZM115 10V15H100V10H115ZM120 35V10H150V15H155V35H145V15H140V35H130V15H125V35H120ZM175 5V0H185V5H175ZM165 35V30H175V15H170V10H185V30H195V35H165ZM200 35V10H230V15H235V35H225V15H210V35H200ZM245 35V30H240V15H245V10H270V15H275V30H270V35H245ZM250 30H265V15H250V30Z" fill="white"/>
</svg>
